<mxfile host="app.diagrams.net" agent="Mozilla/5.0 (Windows NT 10.0; Win64; x64) AppleWebKit/537.36 (KHTML, like Gecko) Chrome/131.0.0.0 Safari/537.36" version="25.0.3">
  <diagram name="Page-1" id="wOGC32buhkwPPwI8NWlR">
    <mxGraphModel dx="659" dy="-1467" grid="1" gridSize="10" guides="1" tooltips="1" connect="1" arrows="1" fold="1" page="1" pageScale="1" pageWidth="850" pageHeight="1100" math="0" shadow="0">
      <root>
        <mxCell id="0" />
        <mxCell id="1" parent="0" />
        <mxCell id="GzhL6LHpNXN6yB0dWWfM-1" value="Signal Acquisition Layer&#xa;BioAmp EXG Pill" style="whiteSpace=wrap;strokeWidth=2;fontStyle=1;fontSize=19;" vertex="1" parent="1">
          <mxGeometry x="1285" y="2230" width="235" height="67" as="geometry" />
        </mxCell>
        <mxCell id="GzhL6LHpNXN6yB0dWWfM-2" value="Signal Transmission via ESP Modules" style="whiteSpace=wrap;strokeWidth=2;fontStyle=1;fontSize=19;" vertex="1" parent="1">
          <mxGeometry x="1277" y="2347" width="252" height="67" as="geometry" />
        </mxCell>
        <mxCell id="GzhL6LHpNXN6yB0dWWfM-52" style="edgeStyle=orthogonalEdgeStyle;rounded=0;orthogonalLoop=1;jettySize=auto;html=1;exitX=0.5;exitY=1;exitDx=0;exitDy=0;entryX=0.5;entryY=0;entryDx=0;entryDy=0;fontStyle=1;fontSize=19;" edge="1" parent="1" source="GzhL6LHpNXN6yB0dWWfM-4" target="GzhL6LHpNXN6yB0dWWfM-6">
          <mxGeometry relative="1" as="geometry" />
        </mxCell>
        <mxCell id="GzhL6LHpNXN6yB0dWWfM-53" value="Noise Removal" style="edgeLabel;html=1;align=center;verticalAlign=middle;resizable=0;points=[];fontStyle=1;fontSize=13;" vertex="1" connectable="0" parent="GzhL6LHpNXN6yB0dWWfM-52">
          <mxGeometry x="-0.0054" relative="1" as="geometry">
            <mxPoint as="offset" />
          </mxGeometry>
        </mxCell>
        <mxCell id="GzhL6LHpNXN6yB0dWWfM-4" value="Signal Preprocessing" style="whiteSpace=wrap;strokeWidth=2;fontStyle=1;fontSize=19;" vertex="1" parent="1">
          <mxGeometry x="1300" y="2477" width="205" height="49" as="geometry" />
        </mxCell>
        <mxCell id="GzhL6LHpNXN6yB0dWWfM-6" value="Feature Extraction" style="whiteSpace=wrap;strokeWidth=2;fontStyle=1;fontSize=19;" vertex="1" parent="1">
          <mxGeometry x="1306" y="2598" width="194" height="49" as="geometry" />
        </mxCell>
        <mxCell id="GzhL6LHpNXN6yB0dWWfM-7" value="Random Forest" style="whiteSpace=wrap;strokeWidth=2;fontStyle=1;fontSize=19;" vertex="1" parent="1">
          <mxGeometry x="880" y="2697" width="167" height="49" as="geometry" />
        </mxCell>
        <mxCell id="GzhL6LHpNXN6yB0dWWfM-8" value="XGBoost" style="whiteSpace=wrap;strokeWidth=2;fontStyle=1;fontSize=19;" vertex="1" parent="1">
          <mxGeometry x="1097" y="2697" width="120" height="49" as="geometry" />
        </mxCell>
        <mxCell id="GzhL6LHpNXN6yB0dWWfM-9" value="1D-CNN" style="whiteSpace=wrap;strokeWidth=2;fontStyle=1;fontSize=19;" vertex="1" parent="1">
          <mxGeometry x="1268" y="2697" width="114" height="49" as="geometry" />
        </mxCell>
        <mxCell id="GzhL6LHpNXN6yB0dWWfM-10" value="LSTM" style="whiteSpace=wrap;strokeWidth=2;fontStyle=1;fontSize=19;" vertex="1" parent="1">
          <mxGeometry x="1432" y="2697" width="97" height="49" as="geometry" />
        </mxCell>
        <mxCell id="GzhL6LHpNXN6yB0dWWfM-11" value="RNN" style="whiteSpace=wrap;strokeWidth=2;fontStyle=1;fontSize=19;" vertex="1" parent="1">
          <mxGeometry x="1579" y="2697" width="90" height="49" as="geometry" />
        </mxCell>
        <mxCell id="GzhL6LHpNXN6yB0dWWfM-12" value="Transformer" style="whiteSpace=wrap;strokeWidth=2;fontStyle=1;fontSize=19;" vertex="1" parent="1">
          <mxGeometry x="1719" y="2697" width="148" height="49" as="geometry" />
        </mxCell>
        <mxCell id="GzhL6LHpNXN6yB0dWWfM-13" value="Weighted Fusion Model" style="whiteSpace=wrap;strokeWidth=2;fontStyle=1;fontSize=19;" vertex="1" parent="1">
          <mxGeometry x="1290" y="2796" width="226" height="49" as="geometry" />
        </mxCell>
        <mxCell id="GzhL6LHpNXN6yB0dWWfM-45" style="edgeStyle=orthogonalEdgeStyle;rounded=1;orthogonalLoop=1;jettySize=auto;html=1;exitX=0.25;exitY=1;exitDx=0;exitDy=0;entryX=0.5;entryY=0;entryDx=0;entryDy=0;curved=0;fontStyle=1;fontSize=19;" edge="1" parent="1" source="GzhL6LHpNXN6yB0dWWfM-15" target="GzhL6LHpNXN6yB0dWWfM-17">
          <mxGeometry relative="1" as="geometry" />
        </mxCell>
        <mxCell id="GzhL6LHpNXN6yB0dWWfM-47" value="Phoneme Prediction" style="edgeLabel;html=1;align=center;verticalAlign=middle;resizable=0;points=[];fontStyle=1;fontSize=13;" vertex="1" connectable="0" parent="GzhL6LHpNXN6yB0dWWfM-45">
          <mxGeometry x="-0.073" y="-5" relative="1" as="geometry">
            <mxPoint as="offset" />
          </mxGeometry>
        </mxCell>
        <mxCell id="GzhL6LHpNXN6yB0dWWfM-46" style="edgeStyle=orthogonalEdgeStyle;rounded=1;orthogonalLoop=1;jettySize=auto;html=1;exitX=0.75;exitY=1;exitDx=0;exitDy=0;curved=0;fontStyle=1;fontSize=19;" edge="1" parent="1" source="GzhL6LHpNXN6yB0dWWfM-15" target="GzhL6LHpNXN6yB0dWWfM-20">
          <mxGeometry relative="1" as="geometry" />
        </mxCell>
        <mxCell id="GzhL6LHpNXN6yB0dWWfM-48" value="Performance Metrics" style="edgeLabel;html=1;align=center;verticalAlign=middle;resizable=0;points=[];fontStyle=1;fontSize=13;" vertex="1" connectable="0" parent="GzhL6LHpNXN6yB0dWWfM-46">
          <mxGeometry x="-0.1713" relative="1" as="geometry">
            <mxPoint x="1" as="offset" />
          </mxGeometry>
        </mxCell>
        <mxCell id="GzhL6LHpNXN6yB0dWWfM-15" value="Final Prediction" style="whiteSpace=wrap;strokeWidth=2;fontStyle=1;fontSize=19;" vertex="1" parent="1">
          <mxGeometry x="1316" y="2900" width="173" height="49" as="geometry" />
        </mxCell>
        <mxCell id="GzhL6LHpNXN6yB0dWWfM-17" value="Speech Synthesis" style="whiteSpace=wrap;strokeWidth=2;fontStyle=1;fontSize=19;" vertex="1" parent="1">
          <mxGeometry x="1182" y="3053" width="182" height="49" as="geometry" />
        </mxCell>
        <mxCell id="GzhL6LHpNXN6yB0dWWfM-18" value="Speech Output" style="whiteSpace=wrap;strokeWidth=2;fontStyle=1;fontSize=19;" vertex="1" parent="1">
          <mxGeometry x="1189" y="3161" width="166" height="49" as="geometry" />
        </mxCell>
        <mxCell id="GzhL6LHpNXN6yB0dWWfM-20" value="Visualizations: Confusion Matrix, ROC, PR Curves" style="whiteSpace=wrap;strokeWidth=2;fontStyle=1;fontSize=19;" vertex="1" parent="1">
          <mxGeometry x="1413" y="3044" width="239" height="67" as="geometry" />
        </mxCell>
        <mxCell id="GzhL6LHpNXN6yB0dWWfM-21" value="" style="curved=1;startArrow=none;endArrow=block;exitX=0.5;exitY=0.99;entryX=0.5;entryY=-0.01;rounded=0;fontStyle=1;fontSize=19;" edge="1" parent="1" source="GzhL6LHpNXN6yB0dWWfM-1" target="GzhL6LHpNXN6yB0dWWfM-2">
          <mxGeometry relative="1" as="geometry">
            <Array as="points" />
          </mxGeometry>
        </mxCell>
        <mxCell id="GzhL6LHpNXN6yB0dWWfM-55" value="EEG Signals" style="edgeLabel;html=1;align=center;verticalAlign=middle;resizable=0;points=[];fontStyle=1;fontSize=13;" vertex="1" connectable="0" parent="GzhL6LHpNXN6yB0dWWfM-21">
          <mxGeometry x="-0.0712" relative="1" as="geometry">
            <mxPoint as="offset" />
          </mxGeometry>
        </mxCell>
        <mxCell id="GzhL6LHpNXN6yB0dWWfM-22" value="" style="curved=1;startArrow=none;endArrow=block;exitX=0.5;exitY=0.99;entryX=0.5;entryY=0;rounded=0;entryDx=0;entryDy=0;fontStyle=1;fontSize=19;" edge="1" parent="1" source="GzhL6LHpNXN6yB0dWWfM-2" target="GzhL6LHpNXN6yB0dWWfM-4">
          <mxGeometry relative="1" as="geometry">
            <Array as="points" />
            <mxPoint x="1403" y="2463" as="targetPoint" />
          </mxGeometry>
        </mxCell>
        <mxCell id="GzhL6LHpNXN6yB0dWWfM-54" value="RAW EEG Signals" style="edgeLabel;html=1;align=center;verticalAlign=middle;resizable=0;points=[];fontStyle=1;fontSize=13;" vertex="1" connectable="0" parent="GzhL6LHpNXN6yB0dWWfM-22">
          <mxGeometry x="-0.0293" y="-1" relative="1" as="geometry">
            <mxPoint as="offset" />
          </mxGeometry>
        </mxCell>
        <mxCell id="GzhL6LHpNXN6yB0dWWfM-26" value="" style="curved=0;startArrow=none;endArrow=block;exitX=0;exitY=0.73;entryX=0.5;entryY=0;rounded=1;fontStyle=1;fontSize=19;" edge="1" parent="1" source="GzhL6LHpNXN6yB0dWWfM-6" target="GzhL6LHpNXN6yB0dWWfM-7">
          <mxGeometry relative="1" as="geometry">
            <Array as="points">
              <mxPoint x="964" y="2672" />
            </Array>
          </mxGeometry>
        </mxCell>
        <mxCell id="GzhL6LHpNXN6yB0dWWfM-64" value="Features" style="edgeLabel;html=1;align=center;verticalAlign=middle;resizable=0;points=[];fontStyle=1;fontSize=13;" vertex="1" connectable="0" parent="GzhL6LHpNXN6yB0dWWfM-26">
          <mxGeometry x="-0.0348" y="-3" relative="1" as="geometry">
            <mxPoint as="offset" />
          </mxGeometry>
        </mxCell>
        <mxCell id="GzhL6LHpNXN6yB0dWWfM-27" value="" style="curved=0;startArrow=none;endArrow=block;exitX=0;exitY=0.9;entryX=0.51;entryY=0;rounded=1;fontStyle=1;fontSize=19;" edge="1" parent="1" source="GzhL6LHpNXN6yB0dWWfM-6" target="GzhL6LHpNXN6yB0dWWfM-8">
          <mxGeometry relative="1" as="geometry">
            <Array as="points">
              <mxPoint x="1158" y="2672" />
            </Array>
          </mxGeometry>
        </mxCell>
        <mxCell id="GzhL6LHpNXN6yB0dWWfM-65" value="Features" style="edgeLabel;html=1;align=center;verticalAlign=middle;resizable=0;points=[];fontStyle=1;fontSize=13;" vertex="1" connectable="0" parent="GzhL6LHpNXN6yB0dWWfM-27">
          <mxGeometry x="-0.0228" y="4" relative="1" as="geometry">
            <mxPoint as="offset" />
          </mxGeometry>
        </mxCell>
        <mxCell id="GzhL6LHpNXN6yB0dWWfM-28" value="" style="curved=0;startArrow=none;endArrow=block;exitX=0.3;exitY=1;entryX=0.5;entryY=0;rounded=1;fontStyle=1;fontSize=19;" edge="1" parent="1" source="GzhL6LHpNXN6yB0dWWfM-6" target="GzhL6LHpNXN6yB0dWWfM-9">
          <mxGeometry relative="1" as="geometry">
            <Array as="points">
              <mxPoint x="1325" y="2672" />
            </Array>
          </mxGeometry>
        </mxCell>
        <mxCell id="GzhL6LHpNXN6yB0dWWfM-66" value="Features" style="edgeLabel;html=1;align=center;verticalAlign=middle;resizable=0;points=[];fontStyle=1;fontSize=13;" vertex="1" connectable="0" parent="GzhL6LHpNXN6yB0dWWfM-28">
          <mxGeometry x="-0.1038" y="-2" relative="1" as="geometry">
            <mxPoint as="offset" />
          </mxGeometry>
        </mxCell>
        <mxCell id="GzhL6LHpNXN6yB0dWWfM-29" value="" style="curved=0;startArrow=none;endArrow=block;exitX=0.7;exitY=1;entryX=0.5;entryY=0;rounded=1;fontStyle=1;fontSize=19;" edge="1" parent="1" source="GzhL6LHpNXN6yB0dWWfM-6" target="GzhL6LHpNXN6yB0dWWfM-10">
          <mxGeometry relative="1" as="geometry">
            <Array as="points">
              <mxPoint x="1481" y="2672" />
            </Array>
          </mxGeometry>
        </mxCell>
        <mxCell id="GzhL6LHpNXN6yB0dWWfM-67" value="Features" style="edgeLabel;html=1;align=center;verticalAlign=middle;resizable=0;points=[];fontStyle=1;fontSize=13;" vertex="1" connectable="0" parent="GzhL6LHpNXN6yB0dWWfM-29">
          <mxGeometry x="-0.0367" y="-4" relative="1" as="geometry">
            <mxPoint as="offset" />
          </mxGeometry>
        </mxCell>
        <mxCell id="GzhL6LHpNXN6yB0dWWfM-30" value="" style="curved=0;startArrow=none;endArrow=block;exitX=1;exitY=0.95;entryX=0.5;entryY=0;rounded=1;fontStyle=1;fontSize=19;" edge="1" parent="1" source="GzhL6LHpNXN6yB0dWWfM-6" target="GzhL6LHpNXN6yB0dWWfM-11">
          <mxGeometry relative="1" as="geometry">
            <Array as="points">
              <mxPoint x="1624" y="2672" />
            </Array>
          </mxGeometry>
        </mxCell>
        <mxCell id="GzhL6LHpNXN6yB0dWWfM-68" value="Features" style="edgeLabel;html=1;align=center;verticalAlign=middle;resizable=0;points=[];fontStyle=1;fontSize=13;" vertex="1" connectable="0" parent="GzhL6LHpNXN6yB0dWWfM-30">
          <mxGeometry x="0.085" y="-5" relative="1" as="geometry">
            <mxPoint x="-1" as="offset" />
          </mxGeometry>
        </mxCell>
        <mxCell id="GzhL6LHpNXN6yB0dWWfM-31" value="" style="curved=0;startArrow=none;endArrow=block;exitX=1;exitY=0.76;entryX=0.5;entryY=0;rounded=1;fontStyle=1;fontSize=19;" edge="1" parent="1" source="GzhL6LHpNXN6yB0dWWfM-6" target="GzhL6LHpNXN6yB0dWWfM-12">
          <mxGeometry relative="1" as="geometry">
            <Array as="points">
              <mxPoint x="1793" y="2672" />
            </Array>
          </mxGeometry>
        </mxCell>
        <mxCell id="GzhL6LHpNXN6yB0dWWfM-69" value="Features" style="edgeLabel;html=1;align=center;verticalAlign=middle;resizable=0;points=[];fontStyle=1;fontSize=13;" vertex="1" connectable="0" parent="GzhL6LHpNXN6yB0dWWfM-31">
          <mxGeometry x="0.1162" y="4" relative="1" as="geometry">
            <mxPoint as="offset" />
          </mxGeometry>
        </mxCell>
        <mxCell id="GzhL6LHpNXN6yB0dWWfM-32" value="" style="curved=0;startArrow=none;endArrow=block;exitX=0.5;exitY=1;entryX=0;entryY=0.24;rounded=1;fontStyle=1;fontSize=19;" edge="1" parent="1" source="GzhL6LHpNXN6yB0dWWfM-7" target="GzhL6LHpNXN6yB0dWWfM-13">
          <mxGeometry relative="1" as="geometry">
            <Array as="points">
              <mxPoint x="964" y="2771" />
            </Array>
          </mxGeometry>
        </mxCell>
        <mxCell id="GzhL6LHpNXN6yB0dWWfM-57" value="Predictions" style="edgeLabel;html=1;align=center;verticalAlign=middle;resizable=0;points=[];fontStyle=1;fontSize=13;" vertex="1" connectable="0" parent="GzhL6LHpNXN6yB0dWWfM-32">
          <mxGeometry x="-0.0831" y="4" relative="1" as="geometry">
            <mxPoint as="offset" />
          </mxGeometry>
        </mxCell>
        <mxCell id="GzhL6LHpNXN6yB0dWWfM-33" value="" style="curved=0;startArrow=none;endArrow=block;exitX=0.51;exitY=1;entryX=0;entryY=0.04;rounded=1;fontStyle=1;fontSize=19;" edge="1" parent="1" source="GzhL6LHpNXN6yB0dWWfM-8" target="GzhL6LHpNXN6yB0dWWfM-13">
          <mxGeometry relative="1" as="geometry">
            <Array as="points">
              <mxPoint x="1158" y="2771" />
            </Array>
          </mxGeometry>
        </mxCell>
        <mxCell id="GzhL6LHpNXN6yB0dWWfM-59" value="Predictions" style="edgeLabel;html=1;align=center;verticalAlign=middle;resizable=0;points=[];fontStyle=1;fontSize=13;" vertex="1" connectable="0" parent="GzhL6LHpNXN6yB0dWWfM-33">
          <mxGeometry x="-0.1205" y="3" relative="1" as="geometry">
            <mxPoint as="offset" />
          </mxGeometry>
        </mxCell>
        <mxCell id="GzhL6LHpNXN6yB0dWWfM-34" value="" style="curved=0;startArrow=none;endArrow=block;exitX=0.5;exitY=1;entryX=0.33;entryY=0;rounded=1;fontStyle=1;fontSize=19;" edge="1" parent="1" source="GzhL6LHpNXN6yB0dWWfM-9" target="GzhL6LHpNXN6yB0dWWfM-13">
          <mxGeometry relative="1" as="geometry">
            <Array as="points">
              <mxPoint x="1325" y="2771" />
            </Array>
          </mxGeometry>
        </mxCell>
        <mxCell id="GzhL6LHpNXN6yB0dWWfM-60" value="Predictions" style="edgeLabel;html=1;align=center;verticalAlign=middle;resizable=0;points=[];fontStyle=1;fontSize=13;" vertex="1" connectable="0" parent="GzhL6LHpNXN6yB0dWWfM-34">
          <mxGeometry x="-0.1491" y="7" relative="1" as="geometry">
            <mxPoint as="offset" />
          </mxGeometry>
        </mxCell>
        <mxCell id="GzhL6LHpNXN6yB0dWWfM-35" value="" style="curved=0;startArrow=none;endArrow=block;exitX=0.5;exitY=1;entryX=0.67;entryY=0;rounded=1;fontStyle=1;fontSize=19;" edge="1" parent="1" source="GzhL6LHpNXN6yB0dWWfM-10" target="GzhL6LHpNXN6yB0dWWfM-13">
          <mxGeometry relative="1" as="geometry">
            <Array as="points">
              <mxPoint x="1481" y="2771" />
            </Array>
          </mxGeometry>
        </mxCell>
        <mxCell id="GzhL6LHpNXN6yB0dWWfM-61" value="Predictions" style="edgeLabel;html=1;align=center;verticalAlign=middle;resizable=0;points=[];fontStyle=1;fontSize=13;" vertex="1" connectable="0" parent="GzhL6LHpNXN6yB0dWWfM-35">
          <mxGeometry x="-0.0898" y="-5" relative="1" as="geometry">
            <mxPoint as="offset" />
          </mxGeometry>
        </mxCell>
        <mxCell id="GzhL6LHpNXN6yB0dWWfM-36" value="" style="curved=0;startArrow=none;endArrow=block;exitX=0.5;exitY=1;entryX=0.98;entryY=0;rounded=1;fontStyle=1;fontSize=19;" edge="1" parent="1" source="GzhL6LHpNXN6yB0dWWfM-11" target="GzhL6LHpNXN6yB0dWWfM-13">
          <mxGeometry relative="1" as="geometry">
            <Array as="points">
              <mxPoint x="1624" y="2771" />
            </Array>
          </mxGeometry>
        </mxCell>
        <mxCell id="GzhL6LHpNXN6yB0dWWfM-62" value="Predictions" style="edgeLabel;html=1;align=center;verticalAlign=middle;resizable=0;points=[];fontStyle=1;fontSize=13;" vertex="1" connectable="0" parent="GzhL6LHpNXN6yB0dWWfM-36">
          <mxGeometry x="-0.1802" y="-7" relative="1" as="geometry">
            <mxPoint as="offset" />
          </mxGeometry>
        </mxCell>
        <mxCell id="GzhL6LHpNXN6yB0dWWfM-37" value="" style="curved=0;startArrow=none;endArrow=block;exitX=0.5;exitY=1;entryX=1;entryY=0.21;rounded=1;fontStyle=1;fontSize=19;" edge="1" parent="1" source="GzhL6LHpNXN6yB0dWWfM-12" target="GzhL6LHpNXN6yB0dWWfM-13">
          <mxGeometry relative="1" as="geometry">
            <Array as="points">
              <mxPoint x="1793" y="2771" />
            </Array>
          </mxGeometry>
        </mxCell>
        <mxCell id="GzhL6LHpNXN6yB0dWWfM-63" value="Predictions" style="edgeLabel;html=1;align=center;verticalAlign=middle;resizable=0;points=[];fontStyle=1;fontSize=13;" vertex="1" connectable="0" parent="GzhL6LHpNXN6yB0dWWfM-37">
          <mxGeometry x="-0.1057" y="-6" relative="1" as="geometry">
            <mxPoint as="offset" />
          </mxGeometry>
        </mxCell>
        <mxCell id="GzhL6LHpNXN6yB0dWWfM-38" value="" style="curved=1;startArrow=none;endArrow=block;exitX=0.5;exitY=1;entryX=0.5;entryY=0;rounded=0;entryDx=0;entryDy=0;fontStyle=1;fontSize=19;" edge="1" parent="1" source="GzhL6LHpNXN6yB0dWWfM-13" target="GzhL6LHpNXN6yB0dWWfM-15">
          <mxGeometry relative="1" as="geometry">
            <Array as="points" />
            <mxPoint x="1402.5" y="2895" as="targetPoint" />
          </mxGeometry>
        </mxCell>
        <mxCell id="GzhL6LHpNXN6yB0dWWfM-56" value="Weighted Average Fusion" style="edgeLabel;html=1;align=center;verticalAlign=middle;resizable=0;points=[];fontStyle=1;fontSize=13;" vertex="1" connectable="0" parent="GzhL6LHpNXN6yB0dWWfM-38">
          <mxGeometry x="-0.0377" y="1" relative="1" as="geometry">
            <mxPoint as="offset" />
          </mxGeometry>
        </mxCell>
        <mxCell id="GzhL6LHpNXN6yB0dWWfM-42" value="" style="curved=1;startArrow=none;endArrow=block;exitX=0.5;exitY=1;entryX=0.5;entryY=0;rounded=0;fontStyle=1;fontSize=19;" edge="1" parent="1" source="GzhL6LHpNXN6yB0dWWfM-17" target="GzhL6LHpNXN6yB0dWWfM-18">
          <mxGeometry relative="1" as="geometry">
            <Array as="points" />
          </mxGeometry>
        </mxCell>
      </root>
    </mxGraphModel>
  </diagram>
</mxfile>
